<svg width="120" height="55" viewBox="0 0 120 55" fill="none" xmlns="http://www.w3.org/2000/svg">
<path d="M9.72636 29.2102C9.04331 31.1574 8.47541 33.0738 8.02266 34.9591C7.56992 36.8445 7.23694 38.543 7.02372 40.0546C7.79122 39.6937 8.59907 39.3683 9.44728 39.0785C10.2878 38.7598 11.3414 38.4303 12.608 38.0899C13.9035 37.7418 15.2758 37.4504 16.725 37.2157C18.1665 36.9521 19.5697 36.7762 20.9345 36.6879C20.8661 35.6233 20.778 34.2546 20.6705 32.5817C20.5629 30.9087 20.4177 29.153 20.2351 27.3146C20.0447 25.4473 19.815 23.6061 19.546 21.7909C19.2981 19.9391 18.989 18.3203 18.6187 16.9345C18.3873 16.0684 18.2022 15.3756 18.0633 14.8559C17.9245 14.3362 17.8406 14.0803 17.8119 14.088C17.2073 14.2505 16.5619 14.7797 15.8757 15.6758C15.2183 16.5642 14.5362 17.7067 13.8294 19.1033C13.1515 20.4923 12.4622 22.0699 11.7617 23.8362C11.0534 25.5737 10.375 27.365 9.72636 29.2102ZM14.1916 42.6307C13.2626 42.8494 12.3491 43.1258 11.451 43.4599C10.574 43.7575 9.76233 44.0684 9.01591 44.3928C8.26949 44.7171 7.60943 45.0182 7.03574 45.2962C6.46204 45.5741 6.05336 45.7767 5.8097 45.9041C5.51053 46.1701 5.26714 46.5295 5.07954 46.9822C4.92072 47.4271 4.78402 47.897 4.66942 48.3919C4.58361 48.8791 4.53044 49.373 4.50992 49.8736C4.4894 50.3742 4.51489 50.8161 4.58638 51.1991C4.50677 52.0559 4.32612 52.7079 4.04444 53.1549C3.79155 53.5941 3.49238 53.8602 3.14692 53.953C2.65753 54.0845 2.18225 53.9802 1.72108 53.6399C1.25992 53.2997 0.810053 52.7708 0.371478 52.0532C0.264999 51.3082 0.1652 50.5306 0.0720819 49.7201C-0.0210366 48.9097 -0.0239342 48.0905 0.0633891 47.2625C0.129638 46.4712 0.308216 45.696 0.599122 44.9371C0.890028 44.1782 1.35187 43.4817 1.98466 42.8475C2.25545 41.3204 2.50337 39.9388 2.72844 38.7025C2.98229 37.4584 3.22946 36.2471 3.46995 35.0686C3.73923 33.8823 4.03729 32.6883 4.36415 31.4865C4.71207 30.2481 5.10498 28.8894 5.54285 27.4102C5.81061 26.5647 6.16268 25.5728 6.59904 24.4344C7.05647 23.2595 7.56762 22.0546 8.13249 20.8198C8.68965 19.5562 9.29771 18.3098 9.95666 17.0807C10.6079 15.8227 11.29 14.6802 12.0029 13.6531C12.737 12.5895 13.4885 11.7068 14.2575 11.0051C15.0188 10.2745 15.7737 9.80866 16.5221 9.60753C17.5873 9.32132 18.48 9.31351 19.2003 9.58411C19.9493 9.84697 20.5709 10.2679 21.065 10.8468C21.559 11.4257 21.9429 12.1116 22.2164 12.9045C22.5111 13.6607 22.7587 14.4142 22.9592 15.1648C23.3757 16.7238 23.728 18.331 24.0161 19.9863C24.3252 21.6051 24.5489 23.3087 24.6874 25.0971C24.8469 26.849 24.9144 28.7183 24.8899 30.7052C24.8865 32.6555 24.7661 34.7456 24.5288 36.9753C25.6886 37.1587 26.572 37.4628 27.1792 37.8876C27.7787 38.2835 28.2095 38.9722 28.4718 39.9538C28.6801 40.7333 28.756 41.5947 28.6995 42.5382C28.643 43.4816 28.4963 44.4339 28.2594 45.3949C28.0302 46.3847 27.7463 47.3429 27.4076 48.2694C27.0689 49.1958 26.7176 50.0174 26.3537 50.734C26.0797 51.2099 25.8258 51.5875 25.5919 51.867C25.3945 52.1676 25.2095 52.3411 25.0367 52.3875C24.6049 52.5035 24.3175 52.1785 24.1745 51.4124C24.068 50.6674 24.042 49.7616 24.0964 48.695C24.1817 47.7438 24.2171 46.8369 24.2026 45.9744C24.2169 45.1042 24.2418 44.2156 24.2772 43.3088C24.1861 42.6216 23.8275 42.1455 23.2013 41.8806C22.5751 41.6156 21.785 41.4876 20.8308 41.4964C19.9132 41.5264 18.8671 41.6528 17.6924 41.8756C16.5177 42.0984 15.3508 42.3501 14.1916 42.6307Z" fill="white"/>
<path d="M42.6616 0.448558C43.6439 -0.032013 44.5135 -0.126432 45.2702 0.1653C46.0193 0.428164 46.5404 1.10812 46.8335 2.20518C46.7836 2.24952 46.7482 2.28999 46.7271 2.3266C46.7348 2.35546 46.6477 2.54906 46.4657 2.90738C46.3048 3.22909 46.0252 3.79931 45.6269 4.61803C45.2496 5.40014 44.6549 6.58105 43.8428 8.16075C44.4186 8.00603 44.9753 8.01114 45.5131 8.17607C46.0796 8.33326 46.5829 8.60027 47.023 8.9771C47.4919 9.34619 47.8898 9.79622 48.2168 10.3272C48.5726 10.8505 48.8315 11.4152 48.9935 12.0215C49.2558 13.003 49.2491 13.9022 48.9737 14.7188C48.727 15.5277 48.3669 16.2588 47.8935 16.912C47.4412 17.5287 46.9551 18.077 46.4354 18.557C45.908 19.0081 45.5091 19.3629 45.2388 19.6212C45.1889 19.6655 45.1285 19.7282 45.0576 19.8091C44.9866 19.8901 45.0501 20.0122 45.2481 20.1757C45.6151 20.5102 46.1023 20.8899 46.7094 21.3146C47.3089 21.7105 47.9708 22.167 48.6952 22.684C49.5291 23.2644 50.1509 23.9173 50.5607 24.6426C50.9916 25.3314 51.2841 25.9644 51.4384 26.5418C51.8087 27.9276 51.7746 29.128 51.3362 30.1432C50.8977 31.1583 50.2652 32.0245 49.4387 32.7417C48.6409 33.4512 47.7575 34.0134 46.7884 34.4285C45.8559 34.8648 45.0586 35.1718 44.3965 35.3497C42.9992 35.6633 41.9791 35.8292 41.3359 35.8473C40.7005 35.8942 40.3558 35.8167 40.3018 35.6146C40.2401 35.3836 40.4912 35.0531 41.0551 34.6231C41.6401 34.1565 42.3076 33.6522 43.0576 33.1103C43.9151 32.5086 44.6219 31.9783 45.1781 31.5194C45.7631 31.0528 46.2147 30.6066 46.5328 30.1807C46.851 29.7548 47.0463 29.3311 47.1188 28.9093C47.1835 28.4587 47.1465 27.9736 47.0076 27.454C46.8919 27.0209 46.6765 26.6765 46.3613 26.4209C46.0385 26.1363 45.6254 25.8605 45.1221 25.5935C44.6398 25.2899 44.0846 24.944 43.4563 24.5559C42.8492 24.1311 42.1785 23.5842 41.4443 22.9151C41.398 22.7418 41.2423 22.5052 40.977 22.2052C40.7405 21.8974 40.5566 21.4982 40.4255 21.0074C40.3021 20.5455 40.2555 20.1403 40.2858 19.7917C40.3449 19.4355 40.43 19.1187 40.541 18.8413C40.6731 18.5273 40.8206 18.2711 40.9836 18.0726C41.1676 17.8375 41.3123 17.6284 41.4176 17.4454C41.7281 16.9907 42.0856 16.5388 42.4902 16.0897C42.887 15.6117 43.2627 15.1704 43.6174 14.7657C43.9721 14.3609 44.2664 14.0188 44.5003 13.7394C44.7552 13.4233 44.8711 13.222 44.848 13.1354C44.8017 12.9622 44.7056 12.8333 44.5596 12.7488C44.4136 12.6642 44.2974 12.6336 44.211 12.6568C43.7504 12.7806 43.3312 13.0015 42.9534 13.3196C42.6043 13.63 42.2851 13.9943 41.9957 14.4124C41.7351 14.8228 41.5005 15.2726 41.2918 15.7619C41.1042 16.2146 40.9271 16.6489 40.7606 17.065C40.0565 19.0489 39.4716 21.2482 39.0061 23.6631C38.5328 26.0491 38.1385 28.615 37.8231 31.3608C37.5287 34.07 37.2874 36.9197 37.0989 39.9099C36.947 42.9212 36.8327 46.0152 36.7558 49.192C36.7251 50.8093 36.6795 51.9664 36.6189 52.6634C36.5948 53.3816 36.482 53.7677 36.2804 53.8219C36.1077 53.8683 35.8231 53.4961 35.4267 52.7053C35.0668 51.9356 34.7055 50.8723 34.343 49.5155C33.6796 47.0327 33.2627 44.3753 33.0923 41.5434C32.9219 38.7116 32.953 35.8256 33.1857 32.8854C33.4394 29.9086 33.863 26.9326 34.4565 23.9573C35.05 20.9821 35.7607 18.0991 36.5887 15.3084C37.4377 12.481 38.3762 9.81534 39.4041 7.31125C40.4244 4.77829 41.5102 2.49073 42.6616 0.448558Z" fill="white"/>
<path d="M72.5425 25.6516C72.5039 25.5072 72.4605 25.2868 72.4121 24.9904C72.3638 24.694 72.3116 24.3831 72.2555 24.0578C72.2282 23.7248 72.201 23.3917 72.1737 23.0587C72.1464 22.7256 72.124 22.4686 72.1065 22.2877C71.6218 23.1296 71.0862 23.9543 70.4997 24.7617C69.9132 25.5691 69.293 26.3081 68.6392 26.9789C67.9853 27.6497 67.3083 28.2339 66.6082 28.7314C65.9081 29.229 65.1981 29.5745 64.4784 29.7679C62.5208 30.2939 60.8861 30.2381 59.5741 29.6005C58.2831 28.9263 57.36 27.5498 56.8046 25.4712C56.5423 24.4896 56.423 23.4078 56.4465 22.2256C56.4623 21.0146 56.784 19.5048 57.4116 17.6962C57.7123 17.0894 58.0227 16.6347 58.343 16.332C58.6632 16.0294 58.9673 15.8394 59.2552 15.762C59.8597 15.5995 60.336 15.7655 60.6841 16.2599C61.0533 16.7177 61.342 17.3363 61.5502 18.1158C61.3709 19.0613 61.1561 20.0473 60.9058 21.0738C60.6766 22.0636 60.697 23.0638 60.967 24.0742C61.1907 24.9115 61.5321 25.4386 61.9912 25.6556C62.4791 25.8648 62.9677 25.9037 63.4571 25.7722C64.0905 25.602 64.7695 25.1411 65.4943 24.3894C66.2479 23.6299 66.9601 22.7733 67.6309 21.8194C68.3305 20.8579 68.9648 19.8829 69.5338 18.8946C70.1238 17.8696 70.5615 17.0249 70.8468 16.3603C71.1665 15.5937 71.5535 14.9636 72.0079 14.4702C72.4623 13.9768 72.8911 13.676 73.2941 13.5677C73.985 13.382 74.5181 13.7029 74.8935 14.5303C75.2976 15.35 75.4412 16.5801 75.3241 18.2205C75.262 19.2583 75.2006 20.1257 75.14 20.8228C75.1005 21.4832 75.0638 22.0964 75.0299 22.6625C74.9883 23.1997 74.9611 23.733 74.9483 24.2625C74.9355 24.792 74.9458 25.408 74.9793 26.1107C74.9876 26.6036 74.9958 27.0964 75.0041 27.5893C75.0489 28.1033 75.034 28.5095 74.9595 28.808C74.9138 29.0988 74.793 29.2241 74.5971 29.1839C74.4012 29.1437 74.085 28.8264 73.6485 28.232C73.2639 27.7165 73.0033 27.2606 72.8665 26.8641C72.7508 26.4311 72.6428 26.0269 72.5425 25.6516Z" fill="white"/>
<path d="M94.5101 19.3309C94.3483 20.4574 94.2191 21.5906 94.1225 22.7305C94.0337 23.8992 93.9775 25.0746 93.954 26.2568C93.9432 26.9095 93.8921 27.5266 93.8007 28.1081C93.7169 28.7185 93.6139 29.2568 93.4916 29.7228C93.377 30.2178 93.2498 30.6078 93.11 30.8929C92.9779 31.2069 92.8399 31.3832 92.6959 31.4219C92.552 31.4606 92.3733 31.3693 92.16 31.1482C91.9754 30.9193 91.7859 30.6144 91.5916 30.2334C91.4049 29.8813 91.225 29.4965 91.0517 29.0789C90.9149 28.6824 90.8146 28.3071 90.7509 27.953C90.6351 27.5199 90.5212 26.9781 90.4091 26.3275C90.3335 25.698 90.2645 25.0358 90.2023 24.3408C90.1688 23.6382 90.1392 22.9499 90.1134 22.2761C90.1164 21.5945 90.1531 20.9813 90.2235 20.4364C89.5676 20.9839 88.9233 21.5748 88.2905 22.209C87.65 22.8143 87.0383 23.4118 86.4553 24.0017C85.8801 24.6204 85.3443 25.213 84.8477 25.7797C84.3799 26.3386 83.9726 26.8348 83.6256 27.2684C82.9394 28.1645 82.3547 28.8631 81.8715 29.3642C81.4171 29.8577 81.0796 30.2114 80.8591 30.4253C80.3682 30.8976 80.0171 31.0848 79.8058 30.9868C79.5945 30.8889 79.4991 30.5896 79.5196 30.089C79.519 29.6251 79.6277 28.9925 79.8456 28.1913C80.0712 27.419 80.3822 26.5619 80.7785 25.6199C81.1614 24.7435 81.6422 23.8871 82.221 23.0509C82.8286 22.2069 83.4765 21.3984 84.1648 20.6256C84.8742 19.8161 85.6134 19.0605 86.3824 18.3588C87.1514 17.6571 87.907 17.0208 88.6493 16.45C87.2628 16.1109 85.9149 15.9162 84.6055 15.8658C83.2961 15.8154 82.1384 15.7551 81.1323 15.6851C79.9776 14.9433 79.4882 14.2085 79.6639 13.4805C79.8397 12.7525 80.484 12.1617 81.597 11.7079C81.8062 11.6826 82.1892 11.6725 82.7459 11.6776C83.295 11.6539 83.9785 11.6713 84.7964 11.73C85.6143 11.7888 86.5378 11.8964 87.5671 12.0531C88.625 12.202 89.7638 12.422 90.9832 12.7132C91.2005 11.448 91.4629 10.0625 91.7702 8.55653C92.0775 7.0506 92.4346 5.50032 92.8416 3.90571C93.1829 3.56645 93.5004 3.31097 93.7939 3.13927C94.0797 2.9387 94.3378 2.80747 94.5681 2.74558C95.0287 2.62181 95.405 2.64446 95.697 2.81354C96.0178 2.97488 96.2533 3.22103 96.4034 3.552C96.5823 3.87523 96.6932 4.23223 96.7359 4.62301C96.8074 5.00605 96.8385 5.35353 96.8293 5.66543C96.6669 6.32792 96.5245 6.8922 96.4022 7.35826C96.2722 7.79546 96.1527 8.21435 96.0437 8.61493C95.9271 8.98665 95.821 9.34007 95.7254 9.67518C95.6298 10.0103 95.5314 10.3926 95.4301 10.822C97.0663 9.67068 98.6471 8.65801 100.172 7.78404C101.719 6.87345 103.236 6.2026 104.726 5.77147C105.953 6.09152 106.667 6.62685 106.867 7.37747C107.075 8.15695 106.691 8.9718 105.715 9.82202C104.773 10.1062 103.782 10.4963 102.742 10.9923C101.702 11.4883 100.699 12.0055 99.7316 12.5438C98.7647 13.0822 97.8985 13.5934 97.133 14.0775C96.3676 14.5617 95.8209 14.9407 95.493 15.2145C96.4147 15.4309 97.4786 15.7175 98.6847 16.0741C99.9119 16.3942 101.137 16.823 102.361 17.3606C103.613 17.8905 104.784 18.5196 105.873 19.248C106.971 20.0052 107.871 20.8926 108.575 21.9103C108.671 22.0391 108.68 22.1296 108.601 22.1817C108.551 22.226 108.443 22.2242 108.276 22.1763C108.043 22.115 107.724 22.0153 107.316 21.8771C106.909 21.739 106.488 21.6047 106.052 21.4743C105.616 21.3439 105.198 21.2241 104.799 21.1148C104.428 20.9979 104.159 20.9154 103.992 20.8675C102.59 20.4706 101.038 20.1452 99.3343 19.8912C97.6522 19.6005 96.0442 19.4138 94.5101 19.3309Z" fill="white"/>
<path fill-rule="evenodd" clip-rule="evenodd" d="M119.983 30.7689C120.105 31.5728 119.553 32.3233 118.752 32.4451C94.5542 36.1218 76.0158 39.9683 63.5624 43.7088C57.3249 45.5823 52.6887 47.4076 49.6458 49.1341C48.1218 49.9989 47.0685 50.7996 46.4152 51.5131C45.761 52.2274 45.613 52.7341 45.6171 53.0544C45.6274 53.8675 44.9785 54.535 44.1678 54.5453C43.3571 54.5557 42.6915 53.905 42.6811 53.092C42.6641 51.75 43.3107 50.55 44.2526 49.5214C45.1953 48.4919 46.5395 47.5136 48.2 46.5714C51.5261 44.6841 56.407 42.7843 62.7199 40.8881C75.3673 37.0893 94.0624 33.2184 118.312 29.5338C119.113 29.412 119.862 29.965 119.983 30.7689Z" fill="white"/>
</svg>
